inDegrees=yes
name=ik_xsens_converted_data
DataType=double
version=3
OpenSimVersion=4.5-2023-11-26-efcdfd3eb
endheader
time	pelvis_tilt	pelvis_list	pelvis_rotation	pelvis_tx	pelvis_ty	pelvis_tz	hip_flexion_r	hip_adduction_r	hip_rotation_r	knee_angle_r	knee_angle_r_beta	ankle_angle_r	subtalar_angle_r	mtp_angle_r	hip_flexion_l	hip_adduction_l	hip_rotation_l	knee_angle_l	knee_angle_l_beta	ankle_angle_l	subtalar_angle_l	mtp_angle_l	lumbar_extension	lumbar_bending	lumbar_rotation	arm_flex_r	arm_add_r	arm_rot_r	elbow_flex_r	pro_sup_r	wrist_flex_r	wrist_dev_r	arm_flex_l	arm_add_l	arm_rot_l	elbow_flex_l	pro_sup_l	wrist_flex_l	wrist_dev_l
23.0167	-1.974257943687992	-0.3256427164640961	-156.9302046028903	0	0.93	0	44.99651279113909	-9.999999988571441	0	59.97515937151181	1.046764000441214	-4.999999851047217	0	0	44.99651279113909	-9.999999988571441	0	59.97515937151181	1.046764000441214	-4.999999851047217	0	0	-1.483084410440448	2.01687320626547	-0.8709501276599431	28.88303925239759	-11.43726222945665	23.69322846330533	4.304339127306637	12.06546439873662	0	5.000000137526114	-3.000783948660437	-9.649489935563588	17.33356474532814	0.02717133738388839	47.53509830186625	0	5.000000137526114
23.0333	-1.954210015131352	-0.343964765720515	-156.9024911944197	0	0.93	0	44.99651497816703	-9.999999988571441	0	59.97517162798613	1.046764214357046	-4.999999851047217	0	0	44.99651497816703	-9.999999988571441	0	59.97517162798613	1.046764214357046	-4.999999851047217	0	0	-1.516274674802228	2.081986156045779	-0.9877775493352486	27.51039171161715	-11.21263940757271	23.23488775859228	3.939680044919348	12.5383503583832	0	5.000000137526114	-3.040066296558724	-9.565041834640235	17.24554348131207	0.02720706133104518	47.55600878862428	0	5.000000137526114
23.05	-1.935254341718115	-0.3577331372766245	-156.8648623032479	0	0.93	0	44.99651688881861	-9.999999988571441	0	59.97518233887667	1.046764401297351	-4.999999851047217	0	0	44.99651688881861	-9.999999988571441	0	59.97518233887667	1.046764401297351	-4.999999851047217	0	0	-1.537171499358439	2.156387535240417	-1.159055739500137	26.17632993997049	-10.98447666777449	22.89665675819878	3.560797011351874	12.99899572420463	0	5.000000137526114	-3.098821320501603	-9.491710023110215	17.11517849993554	0.02723102279563237	47.56199962626298	0	5.000000137526114
23.0667	-1.902546961457127	-0.3684334518969051	-156.8213992012392	0	0.93	0	44.99651848925942	-9.999999988571441	0	59.97519131451247	1.046764557951749	-4.999999851047217	0	0	44.99651848925942	-9.999999988571441	0	59.97519131451247	1.046764557951749	-4.999999851047217	0	0	-1.537960204189161	2.241739837519895	-1.347000661633773	24.84661782264	-10.75039822258175	22.59390532022157	3.197501904495446	13.44626617968962	0	5.000000137526114	-3.157391031259823	-9.368560090419283	16.96450924068037	0.02724552632071428	47.56690639665511	0	5.000000137526114
23.0833	-1.856871594330951	-0.380457352919934	-156.7788510745337	0	0.93	0	44.99652018465798	-9.999999988571441	0	59.97520082278081	1.046764723902337	-4.999999851047217	0	0	44.99652018465798	-9.999999988571441	0	59.97520082278081	1.046764723902337	-4.999999851047217	0	0	-1.524284964727337	2.343289534671297	-1.553025639000159	23.51952133426616	-10.55677653454904	22.3100493078462	2.844551583023886	13.8894435564984	0	5.000000137526114	-3.234089255494636	-9.244012232845115	16.78435147939054	0.02722739618093293	47.56448472905457	0	5.000000137526114
23.1	-1.839215448929995	-0.3988182729845564	-156.7388897688495	0	0.93	0	44.99652142682756	-9.999999988571441	0	59.97520779378879	1.046764845569379	-4.999999851047217	0	0	44.99652142682756	-9.999999988571441	0	59.97520779378879	1.046764845569379	-4.999999851047217	0	0	-1.55439159019123	2.464556791235465	-1.751059082985259	22.24155746811094	-10.36821117762189	22.01092135442329	2.469728574289216	14.30012387947877	0	5.000000137526114	-3.296428235289468	-9.101988277244601	16.5991894111426	0.02717917380510636	47.55310783324268	0	5.000000137526114
23.1167	-1.800556891207663	-0.4043075271218279	-156.6864514214864	0	0.93	0	44.99652265522878	-9.999999988571441	0	59.9752146888511	1.046764965910918	-4.999999851047217	0	0	44.99652265522878	-9.999999988571441	0	59.9752146888511	1.046764965910918	-4.999999851047217	0	0	-1.531125634452487	2.564545178661314	-1.941024415626547	20.90955655138826	-10.17398628096597	21.63492294138254	2.111676567833183	14.6996511244931	0	5.000000137526114	-3.388402508330261	-8.978717433039954	16.42110984691291	0.02714906971703461	47.54938812515367	0	5.000000137526114
23.1333	-1.754304821992673	-0.4077916986843315	-156.6303727383411	0	0.93	0	44.99652390375862	-9.999999988571441	0	59.97522169743424	1.04676508823377	-4.999999851047217	0	0	44.99652390375862	-9.999999988571441	0	59.97522169743424	1.04676508823377	-4.999999851047217	0	0	-1.501479585892572	2.645327295849228	-2.077254949853077	19.55241797738347	-9.976350316937198	21.17218292886532	1.772189993436919	15.04845793214587	0	5.000000137526114	-3.46440981224786	-8.879436377857612	16.29346676710039	0.02712527659147451	47.55209681296615	0	5.000000137526114
23.15	-1.713007522459109	-0.4163873122287219	-156.5880658883522	0	0.93	0	44.99652515556298	-9.999999988571441	0	59.97522872481071	1.046765210884627	-4.999999851047217	0	0	44.99652515556298	-9.999999988571441	0	59.97522872481071	1.046765210884627	-4.999999851047217	0	0	-1.47273317176311	2.752138146436082	-2.240912304800081	18.18884672384835	-9.780806127909671	20.7218193223378	1.429427770172778	15.36208417796133	0	5.000000137526114	-3.549160685772014	-8.754155786261315	16.13587956069712	0.02709521215774924	47.55611719029184	0	5.000000137526114
23.1667	-1.638114940052477	-0.4075639637062832	-156.5462449385121	0	0.93	0	44.99652694281856	-9.999999988571442	0	59.97523875244828	1.046765385899919	-4.999999851047217	0	0	44.99652694281856	-9.999999988571442	0	59.97523875244828	1.046765385899919	-4.999999851047217	0	0	-1.377054068383343	2.840693334074502	-2.371760269888785	16.78608320951879	-9.59048450433999	20.21599549631573	1.093588069600674	15.64251065802777	0	5.000000137526114	-3.679836838660884	-8.650240402710166	16.00731501588815	0.02707568794554408	47.57128309463096	0	5.000000137526114
23.1833	-1.652299002611234	-0.416493326248085	-156.5008362280313	0	0.93	0	44.99652812040306	-9.999999988571442	0	59.97524536449327	1.046765501301874	-4.999999851047217	0	0	44.99652812040306	-9.999999988571442	0	59.97524536449327	1.046765501301874	-4.999999851047217	0	0	-1.432477517562306	2.936962433343981	-2.482315729280652	15.4690888726034	-9.361749585029855	19.75582341334955	0.7165109776726565	15.82181505967577	0	5.000000137526114	-3.723544993198098	-8.556999893033341	15.92034140447134	0.02700691487573771	47.60434092979045	0	5.000000137526114
23.2	-1.628650733605709	-0.4206060813176414	-156.4544477339414	0	0.93	0	44.99652933213361	-9.999999988571442	0	59.97525216912987	1.046765620065187	-4.999999851047217	0	0	44.99652933213361	-9.999999988571442	0	59.97525216912987	1.046765620065187	-4.999999851047217	0	0	-1.427366499809907	3.019662150129784	-2.599271634278797	14.08300953766625	-9.175729167665478	19.29232997624239	0.4471838102102376	15.99159455646299	0	5.000000137526114	-3.796237414795566	-8.474146019988225	15.83698285831805	0.02698097591236829	47.62831655773604	0	5.000000137526114
23.2167	-1.592625547510432	-0.421109213378161	-156.4151120732574	0	0.93	0	44.99653059081635	-9.999999988571442	0	59.97525923767869	1.046765743434637	-4.999999851047217	0	0	44.99653059081635	-9.999999988571442	0	59.97525923767869	1.046765743434637	-4.999999851047217	0	0	-1.415078152272394	3.080788735310558	-2.668501457795919	12.64509583895854	-9.014306686050901	18.77760023495387	0.2824339117891134	16.13371731977451	0	5.000000137526114	-3.850774983822716	-8.419100086551696	15.78730486834235	0.02697267459861688	47.65549972204784	0	5.000000137526114
23.2333	-1.518223699152416	-0.4131721807893014	-156.3906666451256	0	0.93	0	44.99653294712798	-9.999999988571444	0	59.97527245785519	1.046765974170245	-4.999999851047217	0	0	44.99653294712798	-9.999999988571444	0	59.97527245785519	1.046765974170245	-4.999999851047217	0	0	-1.322341691389179	3.112631153056092	-2.686275097184042	11.12212119111475	-8.848771587727613	18.18555146388855	0.1907866821828891	16.29855022931275	0	5.000000137526114	-3.954254103673417	-8.366734886575177	15.77336340707068	0.02696760882930927	47.67260889524016	0	5.000000137526114
23.25	-1.488849613749518	-0.4144454633746241	-156.3605465325381	0	0.93	0	44.99653472597393	-9.999999988571444	0	59.97528244276835	1.046766148439855	-4.999999851047217	0	0	44.99653472597393	-9.999999988571444	0	59.97528244276835	1.046766148439855	-4.999999851047217	0	0	-1.329226548413228	3.184092938512727	-2.778875999770119	9.677272491816513	-8.751427863361791	17.6980051229431	0.1378602846042959	16.45362278638554	0	5.000000137526114	-4.004714702296299	-8.309375102467905	15.67365956495452	0.02696986795363517	47.70019317051119	0	5.000000137526114
23.2667	-1.438979175729702	-0.4126214202093433	-156.3354672630539	0	0.93	0	44.99653691243483	-9.999999988571444	0	59.97529471379836	1.046766362609732	-4.999999851047217	0	0	44.99653691243483	-9.999999988571444	0	59.97529471379836	1.046766362609732	-4.999999851047217	0	0	-1.302197495626958	3.214576371563521	-2.817095951425897	8.217380067562287	-8.615746015588906	17.1424937775044	0.106564665404792	16.62978299800538	0	5.000000137526114	-4.068578621209782	-8.239621526167548	15.60811571914402	0.02693721509799257	47.70641448171789	0	5.000000137526114
23.2833	-1.41518739266668	-0.4157752260226304	-156.3035993680937	0	0.93	0	44.99653890887011	-9.999999988571444	0	59.97530592094257	1.046766558211298	-4.999999851047217	0	0	44.99653890887011	-9.999999988571444	0	59.97530592094257	1.046766558211298	-4.999999851047217	0	0	-1.327091419844969	3.251953526735772	-2.883740312986714	6.806773680575295	-8.540631408061632	16.60128521012129	0.08558920624896227	16.83600796167082	0	5.000000137526114	-4.119029366923075	-8.210037066228798	15.50093829029048	0.02688967582108147	47.71709845295906	0	5.000000137526114
23.3	-1.373686836581147	-0.4197576979466051	-156.2792688901256	0	0.93	0	44.9965410624573	-9.999999988571444	0	59.97531801068973	1.046766769217191	-4.999999851047217	0	0	44.9965410624573	-9.999999988571444	0	59.97531801068973	1.046766769217191	-4.999999851047217	0	0	-1.315963593087124	3.273493778692197	-2.913050027090676	5.411736026751325	-8.429213659128342	16.03069217655201	0.07112429092413212	17.1138073378538	0	5.000000137526114	-4.175167171003787	-8.157552491329291	15.43531535101728	0.02687670757794128	47.73044478195602	0	5.000000137526114
23.3167	-1.339422246722228	-0.4226646687934725	-156.2519962323464	0	0.93	0	44.9965428862734	-9.999999988571444	0	59.97532825249936	1.046766947970491	-4.999999851047217	0	0	44.9965428862734	-9.999999988571444	0	59.97532825249936	1.046766947970491	-4.999999851047217	0	0	-1.347131586118524	3.311893387398125	-2.956860998332655	4.076737286181737	-8.349912483805026	15.48915704309863	0.06050058841184481	17.39036856085063	0	5.000000137526114	-4.208922868540538	-8.098287550926788	15.35318830216788	0.02685906287979918	47.72936376776435	0	5.000000137526114
23.3333	-1.292072807427767	-0.4250880689907037	-156.2335872796869	0	0.93	0	44.99654501787493	-9.999999988571448	0	59.97534022134951	1.046767156866334	-4.999999851047217	0	0	44.99654501787493	-9.999999988571448	0	59.97534022134951	1.046767156866334	-4.999999851047217	0	0	-1.357618288932434	3.352459414110726	-3.003681808176771	2.799192410193961	-8.263088264156448	15.01573522320265	0.05273450024273493	17.6456775634911	0	5.000000137526114	-4.249256613101181	-8.029066209390134	15.27679433776059	0.02680762033622044	47.72259004369467	0	5.000000137526114
23.35	-1.239166941129879	-0.422052409256651	-156.2119487107924	0	0.93	0	44.99654718900487	-9.999999988571448	0	59.97535241339933	1.046767369657746	-4.999999851047217	0	0	44.99654718900487	-9.999999988571448	0	59.97535241339933	1.046767369657746	-4.999999851047217	0	0	-1.348859712821409	3.391746807911456	-3.070395017612333	1.555740394396178	-8.190523094997186	14.59483458948408	0.04675218632918755	17.89111292904647	0	5.000000137526114	-4.307789065055304	-7.970989977446494	15.17559773502326	0.02676771758384228	47.72839809940009	0	5.000000137526114
